<svg width="392" height="130" viewBox="0 0 392 130" fill="none" xmlns="http://www.w3.org/2000/svg">
<mask id="mask0" mask-type="alpha" maskUnits="userSpaceOnUse" x="0" y="0" width="392" height="130">
<rect width="392" height="130" fill="#C4C4C4"/>
</mask>
<g mask="url(#mask0)">
<path d="M311.19 27.1673C313.772 27.1673 315.865 25.0744 315.865 22.4926C315.865 19.9108 313.772 17.8179 311.19 17.8179C308.609 17.8179 306.516 19.9108 306.516 22.4926C306.516 25.0744 308.609 27.1673 311.19 27.1673Z" fill="black"/>
<path opacity="0.86" d="M53.7464 81.2192C50.288 81.2179 46.8937 80.2857 43.9197 78.5204C40.9457 76.7551 38.5017 74.2219 36.8442 71.1865H29.9531C31.6521 75.578 34.5335 79.4136 38.2783 82.2682C42.023 85.1228 46.4848 86.8852 51.1695 87.36C55.8542 87.8348 60.5789 87.0036 64.8203 84.9584C69.0616 82.9132 72.6541 79.7338 75.1996 75.7725L69.796 72.5879C68.0418 75.2403 65.6579 77.4168 62.8572 78.923C60.0566 80.4291 56.9264 81.218 53.7464 81.2192Z" fill="black"/>
<path d="M79.0643 58.8256C78.3013 52.6457 75.3052 46.958 70.6402 42.8336C65.9753 38.7092 59.9633 36.4326 53.7365 36.4326C47.5097 36.4326 41.4978 38.7092 36.8328 42.8336C32.1679 46.958 29.1718 52.6457 28.4088 58.8256C28.2762 59.8649 28.2088 60.9114 28.207 61.9591C28.2089 62.948 28.2682 63.9358 28.3846 64.9178L28.4088 65.098H79.0643C79.0643 65.098 79.0777 65.0173 79.0885 64.9178C79.3321 62.8948 79.3248 60.8495 79.067 58.8283L79.0643 58.8256ZM34.7377 58.8256C35.4806 54.323 37.7985 50.2305 41.2782 47.2779C44.7578 44.3254 49.173 42.7046 53.7365 42.7046C58.3 42.7046 62.7152 44.3254 66.1949 47.2779C69.6745 50.2305 71.9925 54.323 72.7354 58.8256H34.7377Z" fill="black"/>
<path d="M161.786 87.4826C156.737 87.4826 151.801 85.9854 147.603 83.1803C143.405 80.3752 140.133 76.3883 138.201 71.7236C136.269 67.059 135.763 61.9261 136.748 56.9741C137.733 52.0222 140.165 47.4735 143.735 43.9033C147.305 40.3331 151.854 37.9018 156.806 36.9168C161.758 35.9318 166.891 36.4373 171.555 38.3695C176.22 40.3017 180.207 43.5737 183.012 47.7718C185.817 51.9698 187.314 56.9054 187.314 61.9544C187.308 68.723 184.616 75.2124 179.83 79.9985C175.044 84.7846 168.555 87.4762 161.786 87.4826ZM161.786 42.696C157.977 42.696 154.254 43.8255 151.087 45.9417C147.92 48.0578 145.451 51.0655 143.994 54.5846C142.536 58.1036 142.155 61.9758 142.898 65.7116C143.641 69.4473 145.475 72.8788 148.168 75.5722C150.862 78.2655 154.293 80.0997 158.029 80.8428C161.765 81.5859 165.637 81.2045 169.156 79.7469C172.675 78.2893 175.683 75.8209 177.799 72.6538C179.915 69.4868 181.044 65.7634 181.044 61.9544C181.037 56.8499 179.005 51.9569 175.395 48.3482C171.784 44.7395 166.89 42.7098 161.786 42.7041V42.696Z" fill="black"/>
<path d="M109.83 81.2179C106.464 81.2191 103.157 80.3382 100.238 78.663C97.3184 76.9877 94.8892 74.5767 93.1921 71.6701C91.495 68.7635 90.5893 65.4629 90.5652 62.0972C90.5412 58.7316 91.3996 55.4184 93.0549 52.4878C94.7103 49.5573 97.1048 47.1117 99.9997 45.3949C102.895 43.6781 106.189 42.7499 109.554 42.703C112.92 42.656 116.239 43.4919 119.181 45.1273C122.122 46.7627 124.584 49.1405 126.321 52.0237L131.748 48.8929C128.884 44.0845 124.519 40.3508 119.324 38.2665C114.13 36.1821 108.394 35.8626 103.001 37.3571C97.607 38.8516 92.8539 42.0773 89.4729 46.5377C86.092 50.9981 84.2707 56.446 84.2892 62.0429C84.3077 67.6398 86.1651 73.0755 89.5755 77.5134C92.9859 81.9514 97.7603 85.1455 103.164 86.6042C108.567 88.063 114.3 87.7054 119.481 85.5867C124.661 83.468 129.002 79.7055 131.835 74.8783L126.42 71.7259C124.72 74.6148 122.295 77.0099 119.385 78.6746C116.476 80.3393 113.182 81.216 109.83 81.2179Z" fill="black"/>
<path d="M6.26974 45.2217V37.5748H0V86.1512H6.26974V61.9598C6.27544 56.8539 8.30627 51.9588 11.9167 48.3483C15.5271 44.7379 20.4223 42.7071 25.5282 42.7014V36.4316C21.8756 36.4307 18.2656 37.2151 14.9428 38.7317C11.62 40.2483 8.6621 42.4616 6.26974 45.2217Z" fill="black"/>
<path d="M314.328 37.5747H308.059V86.3448H314.328V37.5747Z" fill="black"/>
<path d="M297.155 57.043C297.157 52.9316 295.945 48.9111 293.67 45.4865C291.395 42.0618 288.159 39.3856 284.368 37.7939C280.577 36.2023 276.401 35.7661 272.363 36.5401C268.325 37.3141 264.606 39.2639 261.672 42.1446V37.5721H255.402V86.1485H261.672V57.043C261.646 55.1082 262.004 53.1874 262.727 51.3922C263.449 49.5971 264.52 47.9633 265.879 46.5858C267.238 45.2083 268.857 44.1145 270.643 43.3679C272.428 42.6214 274.344 42.2369 276.279 42.2369C278.214 42.2369 280.129 42.6214 281.915 43.3679C283.7 44.1145 285.319 45.2083 286.678 46.5858C288.037 47.9633 289.108 49.5971 289.831 51.3922C290.553 53.1874 290.911 55.1082 290.885 57.043V86.1539H297.155V57.043Z" fill="black"/>
<path d="M348.201 81.1001C344.835 81.1015 341.527 80.2208 338.608 78.5456C335.688 76.8704 333.259 74.4593 331.561 71.5526C329.864 68.6459 328.958 65.3451 328.934 61.9792C328.91 58.6133 329.769 55.3 331.424 52.3693C333.08 49.4386 335.475 46.9931 338.37 45.2764C341.265 43.5596 344.56 42.6317 347.926 42.5851C351.291 42.5385 354.61 43.3748 357.552 45.0107C360.494 46.6465 362.955 49.0248 364.691 51.9085L370.111 48.7777C367.247 43.9682 362.882 40.2334 357.687 38.148C352.492 36.0626 346.756 35.7422 341.361 37.2361C335.967 38.7301 331.213 41.9556 327.831 46.4162C324.449 50.8768 322.627 56.3252 322.645 61.9228C322.663 67.5205 324.52 72.9571 327.93 77.3959C331.341 81.8347 336.115 85.0296 341.519 86.4889C346.924 87.9482 352.658 87.591 357.839 85.4723C363.02 83.3536 367.361 79.5908 370.194 74.7631L364.788 71.6107C363.088 74.4989 360.663 76.8934 357.754 78.5576C354.845 80.2219 351.552 81.0982 348.201 81.1001Z" fill="black"/>
<path d="M238.31 37.5744V45.2213C234.899 41.2939 230.369 38.5023 225.328 37.2202C220.287 35.9381 214.974 36.2266 210.101 38.0473C205.228 39.8679 201.028 43.1338 198.062 47.4075C195.097 51.6812 193.508 56.7589 193.508 61.9608C193.508 67.1626 195.097 72.2403 198.062 76.514C201.028 80.7878 205.228 84.0536 210.101 85.8743C214.974 87.6949 220.287 87.9835 225.328 86.7014C230.369 85.4193 234.899 82.6276 238.31 78.7003V87.3343C238.291 91.9365 236.626 96.38 233.614 99.8601C230.602 103.34 226.444 105.627 221.892 106.306C217.34 106.984 212.696 106.011 208.8 103.561C204.904 101.111 202.014 97.347 200.654 92.9504L195.105 96.1216C197.171 101.748 201.152 106.468 206.349 109.454C211.546 112.44 217.629 113.503 223.53 112.455C229.432 111.407 234.777 108.316 238.628 103.723C242.48 99.1299 244.592 93.3283 244.596 87.3343V37.5744H238.31ZM219.051 81.2178C215.242 81.2178 211.519 80.0884 208.352 77.9722C205.185 75.8561 202.716 72.8483 201.259 69.3293C199.801 65.8103 199.42 61.9381 200.163 58.2023C200.906 54.4665 202.74 51.035 205.434 48.3417C208.127 45.6483 211.558 43.8142 215.294 43.0711C219.03 42.328 222.902 42.7094 226.421 44.167C229.94 45.6246 232.948 48.093 235.064 51.26C237.18 54.4271 238.31 58.1505 238.31 61.9594C238.304 67.0639 236.274 71.9579 232.666 75.568C229.057 79.1782 224.164 81.21 219.059 81.2178H219.051Z" fill="black"/>
<path d="M378.395 31.3049V18.7627H372.125V37.5746H390.934V31.3049H378.395Z" fill="#FF2850"/>
</g>
</svg>
